# xmcd
# 
# Track frame offsets:
#     37500
#     65915
#     84145
#     103462
#     126945
#     146830
#     171982
#     201312
# 
# Disc length: 2961
# 
# Revision: 22
# Processed by: cddbd v1.5.2PL0 Copyright (c) Steve Scherf et al.
# Submitted via: BonkEnc v1.0.15
# 
DISCID=81099d08
DTITLE=BUMP OF CHICKEN - FLAME VEIN +1
DYEAR=2004
DGENRE=Rock
TTITLE0=ガラスのブルース
TTITLE1=くだらない唄
TTITLE2=アルエ
TTITLE3=リトルブレイバー
TTITLE4=ノーヒットノーラン
TTITLE5=とっておきの唄
TTITLE6=ナイフ
TTITLE7=バトルクライ
EXTD=YEAR: 2004
EXTT0=
EXTT1=
EXTT2=
EXTT3=
EXTT4=
EXTT5=
EXTT6=
EXTT7=
PLAYORDER=
